<?xml version="1.0" standalone="no"?><!DOCTYPE svg PUBLIC "-//W3C//DTD SVG 1.1//EN" "http://www.w3.org/Graphics/SVG/1.1/DTD/svg11.dtd"><svg t="1686895625992" class="icon" viewBox="0 0 1024 1024" version="1.1" xmlns="http://www.w3.org/2000/svg" p-id="1073" xmlns:xlink="http://www.w3.org/1999/xlink" width="48" height="48"><path d="M109.632 350.336l519.68 0c25.152 0 45.568 22.016 45.568 48.896 0 26.88-20.416 48.896-45.568 48.896l-519.68 0c-25.21599999 0-45.63199999-22.016-45.632-48.896 0-26.88 20.48-48.896 45.632-48.896z m0 228.096l519.68 0c25.152 0 45.568 21.95200001 45.568 48.896 0 26.88-20.416 48.896-45.568 48.896l-519.68 0c-25.21599999 0-45.63199999-22.016-45.632-48.896 0-26.88 20.48-48.896 45.632-48.896z m3.264 219.904L908.672 798.336c26.88 0 50.56 20.352 51.328 47.168A48.896 48.896 0 0 1 911.10399999 896l-795.77599999 0c-26.88 0-50.56-20.416-51.328-47.168a48.896 48.896 0 0 1 48.89600001-50.56z m619.776-447.232L732.672 675.328 960 513.216l-227.328-162.112c0-0.768 0-0.768 0 0z m178.432-122.944l-795.776 0c-26.88 0-50.56-20.48-51.328-47.232a48.896 48.896 0 0 1 48.89600001-50.496L908.672 130.432c26.88 0 50.56 20.416 51.328 47.232a48.896 48.896 0 0 1-48.896 50.496z" fill="#000000" p-id="1074"></path></svg>