<?xml version="1.0" standalone="no"?><!DOCTYPE svg PUBLIC "-//W3C//DTD SVG 1.1//EN" "http://www.w3.org/Graphics/SVG/1.1/DTD/svg11.dtd"><svg t="1686038654860" class="icon" viewBox="0 0 1027 1024" version="1.1" xmlns="http://www.w3.org/2000/svg" p-id="13524" width="48.140625" height="48" xmlns:xlink="http://www.w3.org/1999/xlink"><path d="M55.808 328.448h593.92a55.808 55.808 0 0 1 0 111.616H55.808a55.808 55.808 0 0 1 0-111.616z m0 260.352h593.92a55.808 55.808 0 0 1 0 111.616H55.808a55.808 55.808 0 0 1 0-111.616z m3.584 251.392h912.384a55.808 55.808 0 1 1 0 111.616H59.392a55.808 55.808 0 1 1 0-111.616z m707.584-512L1027.072 514.56l-260.096 186.112z m204.8-139.776H59.392A55.808 55.808 0 0 1 59.392 76.8h912.384a55.808 55.808 0 0 1 0 111.616z m0 0" p-id="13525"></path></svg>